<svg width="158" height="158" viewBox="0 0 158 158" fill="none" xmlns="http://www.w3.org/2000/svg">
<circle cx="79" cy="79" r="79" fill="#255585"/>
<path d="M79 81.0393C88.9411 81.0393 97 72.9717 97 63.0197C97 53.0677 88.9411 45 79 45C69.0589 45 61 53.0677 61 63.0197C61 72.9717 69.0589 81.0393 79 81.0393Z" fill="white"/>
<path d="M117 89.0481C124.732 89.0481 131 82.7732 131 75.0328C131 67.2923 124.732 61.0175 117 61.0175C109.268 61.0175 103 67.2923 103 75.0328C103 82.7732 109.268 89.0481 117 89.0481Z" fill="white"/>
<path d="M129.317 88.1546C126.095 91.1879 121.762 93.0524 117 93.0524C115.772 93.0524 114.575 92.9273 113.417 92.692C116.962 98.666 119 105.636 119 113.074H141C142.105 113.074 143 112.178 143 111.072C143 101.179 137.457 92.5569 129.317 88.1546Z" fill="white"/>
<path d="M41 89.0481C48.732 89.0481 55 82.7732 55 75.0328C55 67.2923 48.732 61.0175 41 61.0175C33.268 61.0175 27 67.2923 27 75.0328C27 82.7732 33.268 89.0481 41 89.0481Z" fill="white"/>
<path d="M41 93.0524C36.2375 93.0524 31.905 91.1879 28.6825 88.1546C20.5425 92.5569 15 101.179 15 111.072C15 112.178 15.895 113.074 17 113.074H39C39 105.636 41.04 98.666 44.5825 92.692C43.425 92.9273 42.225 93.0524 41 93.0524Z" fill="white"/>
<path d="M93.0975 79.9131C89.2775 83.1141 84.36 85.0437 79 85.0437C73.64 85.0437 68.7225 83.1141 64.9025 79.9131C52.0375 85.4141 43 98.2056 43 113.074H115C115 98.2081 105.96 85.4166 93.0975 79.9131Z" fill="white"/>
</svg>
