<svg width="163" height="163" viewBox="0 0 163 163" fill="none" xmlns="http://www.w3.org/2000/svg">
<circle cx="81.5" cy="54.3333" r="17.875" stroke="#255585" stroke-width="5" stroke-linecap="round"/>
<path d="M92.7315 43.6979C94.1633 41.2179 96.2984 39.2181 98.8668 37.9515C101.435 36.685 104.321 36.2084 107.161 36.5822C110 36.956 112.665 38.1633 114.818 40.0515C116.971 41.9397 118.515 44.4239 119.257 47.19C119.998 49.9562 119.902 52.88 118.982 55.5917C118.061 58.3034 116.357 60.6813 114.085 62.4246C111.813 64.1679 109.075 65.1984 106.218 65.3857C103.36 65.573 100.511 64.9087 98.0312 63.4768" stroke="#255585" stroke-width="5"/>
<path d="M70.2685 43.6979C68.8367 41.2179 66.7016 39.2181 64.1332 37.9515C61.5648 36.685 58.6785 36.2084 55.8393 36.5822C53.0001 36.956 50.3355 38.1633 48.1824 40.0515C46.0294 41.9397 44.4846 44.4239 43.7434 47.19C43.0022 49.9562 43.0979 52.88 44.0184 55.5917C44.939 58.3034 46.6429 60.6813 48.9148 62.4246C51.1868 64.1679 53.9246 65.1984 56.7822 65.3857C59.6398 65.573 62.4887 64.9087 64.9688 63.4768" stroke="#255585" stroke-width="5"/>
<path d="M81.5 84.8958C115.369 84.8958 118.529 118.396 118.824 124.648C118.85 125.199 118.406 125.646 117.854 125.646H45.1459C44.5936 125.646 44.1502 125.199 44.1762 124.648C44.4711 118.396 47.6312 84.8958 81.5 84.8958Z" stroke="#255585" stroke-width="5" stroke-linecap="round"/>
<path d="M132.301 110.985L134.776 110.634L134.776 110.634L132.301 110.985ZM88.8832 85.4793L87.037 83.7937L83.9348 87.1913L88.4733 87.9455L88.8832 85.4793ZM116.69 112.063L114.288 112.757L114.81 114.563H116.69V112.063ZM105.271 80.6042C114.581 80.6042 120.452 86.4631 124.236 93.5534C128.031 100.666 129.43 108.545 129.825 111.336L134.776 110.634C134.352 107.644 132.853 99.0817 128.647 91.1996C124.429 83.2948 117.196 75.6042 105.271 75.6042V80.6042ZM90.7294 87.165C94.2669 83.2906 98.9371 80.6042 105.271 80.6042V75.6042C97.2975 75.6042 91.3511 79.0686 87.037 83.7937L90.7294 87.165ZM88.4733 87.9455C104.59 90.6237 111.378 102.697 114.288 112.757L119.091 111.368C115.935 100.46 108.157 86.1479 89.293 83.0131L88.4733 87.9455ZM131.332 109.563H116.69V114.563H131.332V109.563ZM129.825 111.336C129.678 110.299 130.525 109.563 131.332 109.563V114.563C133.323 114.563 135.089 112.844 134.776 110.634L129.825 111.336Z" fill="#255585"/>
<path d="M74.1169 85.4793L74.5267 87.9455L79.0652 87.1913L75.9631 83.7937L74.1169 85.4793ZM30.6992 110.985L33.1744 111.336L33.1744 111.336L30.6992 110.985ZM46.3104 112.063V114.563H48.1896L48.7119 112.757L46.3104 112.063ZM57.7293 80.6042C64.063 80.6042 68.7332 83.2906 72.2707 87.165L75.9631 83.7937C71.649 79.0686 65.7026 75.6042 57.7293 75.6042V80.6042ZM33.1744 111.336C33.5703 108.545 34.9688 100.666 38.7643 93.5534C42.5477 86.4631 48.4195 80.6042 57.7293 80.6042V75.6042C45.8043 75.6042 38.571 83.2948 34.353 91.1996C30.1471 99.0817 28.648 107.644 28.2239 110.634L33.1744 111.336ZM31.6676 109.563C32.4746 109.563 33.3215 110.299 33.1744 111.336L28.2239 110.634C27.9107 112.844 29.6774 114.563 31.6676 114.563V109.563ZM46.3104 109.563H31.6676V114.563H46.3104V109.563ZM48.7119 112.757C51.6223 102.697 58.4103 90.6238 74.5267 87.9455L73.7071 83.0132C54.8436 86.1479 47.0646 100.46 43.9089 111.368L48.7119 112.757Z" fill="#255585"/>
</svg>
