<svg width="158" height="159" viewBox="0 0 158 159" fill="none" xmlns="http://www.w3.org/2000/svg">
<ellipse cx="79" cy="79.5" rx="79" ry="79.5" fill="#255585"/>
<path d="M110.673 36L73.3818 36.7777L22.6588 87.5359C21.7803 88.4142 21.7804 89.8386 22.6588 90.7172L62.2828 130.341C63.1613 131.22 64.5856 131.22 65.4641 130.341L116.222 79.6182L117 42.3272C117 40.5858 116.58 38.761 115.445 37.626C114.31 36.4909 112.414 35.9981 110.673 36ZM100.033 47.311C101.481 47.311 102.923 47.8681 104.028 48.9724C106.236 51.181 106.236 54.7522 104.028 56.9608C101.819 59.1694 98.2478 59.1694 96.0392 56.9608C93.8306 54.7522 93.8306 51.181 96.0392 48.9724C97.1435 47.8681 98.5861 47.311 100.033 47.311ZM72.9223 63.1465C79.0847 63.1465 83.3348 65.8533 86.9197 69.4383C87.1377 69.6456 87.3122 69.8943 87.4329 70.1699C87.5536 70.4455 87.6181 70.7423 87.6228 71.0431C87.6274 71.3439 87.5719 71.6426 87.4597 71.9217C87.3475 72.2008 87.1807 72.4547 86.9692 72.6686C86.7576 72.8825 86.5056 73.0521 86.2277 73.1674C85.9498 73.2827 85.6518 73.3414 85.3509 73.3401C85.0501 73.3389 84.7525 73.2776 84.4757 73.1599C84.1988 73.0422 83.9482 72.8706 83.7385 72.6549C80.5368 69.4532 77.8547 67.671 72.9223 67.671C66.7742 67.671 61.5293 71.3998 59.3137 76.7197H74.018C74.3177 76.7156 74.6153 76.7712 74.8933 76.883C75.1714 76.9948 75.4245 77.1608 75.6379 77.3713C75.8512 77.5818 76.0207 77.8326 76.1363 78.1091C76.252 78.3856 76.3115 78.6823 76.3115 78.982C76.3115 79.2817 76.252 79.5785 76.1363 79.855C76.0207 80.1315 75.8512 80.3822 75.6379 80.5927C75.4245 80.8032 75.1714 80.9691 74.8933 81.081C74.6153 81.1928 74.3177 81.2484 74.018 81.2442H58.2179C58.19 81.6155 58.1826 81.9966 58.1826 82.3753C58.1826 83.1451 58.246 83.9002 58.3593 84.6375H74.018C74.3179 84.6331 74.6157 84.6883 74.8941 84.8C75.1724 84.9117 75.4258 85.0777 75.6394 85.2882C75.853 85.4987 76.0227 85.7496 76.1385 86.0262C76.2543 86.3029 76.3139 86.5998 76.3139 86.8997C76.3139 87.1996 76.2543 87.4966 76.1385 87.7732C76.0227 88.0499 75.853 88.3008 75.6394 88.5113C75.4258 88.7218 75.1724 88.8877 74.8941 88.9994C74.6157 89.1111 74.3179 89.1663 74.018 89.1619H59.8439C62.2953 93.8751 67.2169 97.0797 72.9223 97.0797C77.8547 97.0797 80.5368 95.262 83.7385 92.0604C83.9482 91.8446 84.1988 91.6728 84.4757 91.5551C84.7526 91.4373 85.0502 91.376 85.3511 91.3747C85.6519 91.3734 85.9501 91.432 86.228 91.5473C86.5059 91.6626 86.758 91.8323 86.9696 92.0462C87.1812 92.2601 87.348 92.5141 87.4602 92.7933C87.5724 93.0725 87.6278 93.3712 87.6232 93.672C87.6185 93.9729 87.5539 94.2698 87.4331 94.5454C87.3123 94.8209 87.1378 95.0697 86.9197 95.277C83.3348 98.862 79.0847 101.604 72.9223 101.604C64.7134 101.604 57.6934 96.4159 54.9307 89.1619H51.396C51.0981 89.1771 50.8002 89.1334 50.5193 89.0332C50.2385 88.933 49.9801 88.7783 49.7592 88.578C49.5382 88.3777 49.359 88.1358 49.2319 87.866C49.1047 87.5963 49.032 87.3041 49.018 87.0062C49.0041 86.7083 49.0491 86.4106 49.1505 86.1302C49.2519 85.8497 49.4077 85.5921 49.6089 85.372C49.8101 85.1519 50.0529 84.9737 50.3231 84.8476C50.5934 84.7216 50.8859 84.6502 51.1839 84.6375C51.2545 84.6342 51.3253 84.6342 51.396 84.6375H53.7996C53.7125 83.8985 53.6582 83.137 53.6582 82.3753C53.6582 81.9967 53.7071 81.6175 53.7289 81.2442H51.396C51.0989 81.2582 50.802 81.2134 50.5222 81.1126C50.2424 81.0118 49.9852 80.8568 49.7653 80.6566C49.5454 80.4564 49.367 80.2148 49.2405 79.9457C49.1139 79.6766 49.0416 79.3851 49.0277 79.088C49.0138 78.7909 49.0585 78.4941 49.1593 78.2143C49.2601 77.9345 49.4151 77.6773 49.6153 77.4574C49.8155 77.2375 50.0571 77.0591 50.3262 76.9326C50.5954 76.806 50.8868 76.7337 51.1839 76.7197C51.2545 76.7164 51.3253 76.7164 51.396 76.7197H54.5065C56.931 68.8626 64.2813 63.1465 72.9223 63.1465Z" fill="white"/>
</svg>
