<svg width="158" height="159" viewBox="0 0 158 159" fill="none" xmlns="http://www.w3.org/2000/svg">
<ellipse cx="79" cy="79.5" rx="79" ry="79.5" fill="#255585"/>
<path fill-rule="evenodd" clip-rule="evenodd" d="M123.337 72.7467C121.136 72.7478 118.982 72.1101 117.136 70.9111L107.127 82.2348C108.161 83.8736 108.76 85.7492 108.867 87.6842C108.973 89.6192 108.585 91.5494 107.737 93.292C106.889 95.0347 105.611 96.5322 104.023 97.6427C102.434 98.7531 100.589 99.4399 98.6613 99.6378C96.7335 99.8358 94.7871 99.5384 93.0064 98.7739C91.2257 98.0094 89.6695 96.803 88.4854 95.269C87.3012 93.7349 86.5282 91.9241 86.2395 90.0078C85.9508 88.0915 86.156 86.1332 86.8357 84.3184L73.1927 77.5093C72.4364 78.7923 71.4348 79.9137 70.245 80.8095C69.0553 81.7052 67.7006 82.3578 66.2586 82.7298C64.8165 83.1018 63.3153 83.1861 61.8407 82.9777C60.366 82.7693 58.9469 82.2724 57.6644 81.5154L44.7903 92.3926L44.319 91.8717C45.7519 94.3571 46.1971 97.2906 45.5662 100.089C44.9353 102.888 43.2745 105.346 40.9138 106.977C38.5531 108.607 35.6655 109.289 32.8249 108.888C29.9843 108.486 27.3987 107.031 25.5821 104.81C23.7654 102.59 22.8508 99.7675 23.0199 96.9037C23.189 94.0399 24.4295 91.3445 26.4948 89.3534C28.5601 87.3623 31.2991 86.2212 34.1672 86.157C37.0353 86.0927 39.8225 87.11 41.9749 89.0067L54.3777 78.5387C53.2845 77.1008 52.5496 75.4232 52.2337 73.6447C51.9178 71.8663 52.03 70.0382 52.5611 68.3117C53.0922 66.5853 54.0268 65.0102 55.2876 63.7167C56.5485 62.4233 58.0993 61.4488 59.8116 60.8739C61.5239 60.2989 63.3486 60.1401 65.1345 60.4105C66.9204 60.681 68.6163 61.3729 70.0816 62.429C71.547 63.4851 72.7397 64.8751 73.5611 66.4838C74.3825 68.0925 74.8089 69.8737 74.805 71.68C74.7976 72.2283 74.752 72.7753 74.6686 73.3172L89.1674 80.5356C91.0459 78.485 93.612 77.1955 96.3785 76.912C99.145 76.6285 101.919 77.3707 104.175 78.9976L114.097 67.8352C112.649 65.7467 111.942 63.2328 112.091 60.6957C112.24 58.1585 113.235 55.7444 114.918 53.8396C116.601 51.9348 118.873 50.6492 121.373 50.1883C123.872 49.7275 126.454 50.1181 128.705 51.2976C130.956 52.4771 132.747 54.3775 133.791 56.6948C134.835 59.0121 135.072 61.6125 134.463 64.0801C133.855 66.5478 132.437 68.7403 130.435 70.3069C128.434 71.8735 125.965 72.7238 123.424 72.7219L123.337 72.7467Z" fill="white"/>
</svg>
