<svg width="158" height="158" viewBox="0 0 158 158" fill="none" xmlns="http://www.w3.org/2000/svg">
<circle cx="79" cy="79" r="79" fill="#255585"/>
<path d="M103.361 67.1828C103.395 66.6457 103.429 66.1085 103.429 65.5714C103.429 62.2143 102.724 59.025 101.448 56.1378C104.738 53.6536 106.786 49.6921 106.786 45.4286C106.786 38.0093 100.776 32 93.3572 32C87.0793 32 81.8422 36.2971 80.365 42.105C80.2307 42.0714 80.0629 42.0714 79.9286 42.0714C74.725 42.0714 69.9579 43.7836 66.0636 46.6371C70.495 53.2843 81.7079 65.84 103.361 67.1828Z" fill="white"/>
<path d="M79.9286 89.0715C90 89.0715 98.5943 82.7265 101.918 73.7965C78.5857 71.9836 66.0971 58.3201 61.1957 51.4044C58.2079 55.3322 56.4286 60.2672 56.4286 65.5715C56.4286 78.5301 66.97 89.0715 79.9286 89.0715Z" fill="white"/>
<path d="M46.3571 126H59.7857V109.214C59.7857 107.368 61.2964 105.857 63.1428 105.857C64.9893 105.857 66.5 107.368 66.5 109.214V126H93.3571V109.214C93.3571 107.368 94.8678 105.857 96.7142 105.857C98.5607 105.857 100.071 107.368 100.071 109.214V126H113.5C115.346 126 116.857 124.489 116.857 122.643V107.166C116.857 97.4643 110.378 89.2729 101.549 86.6207C96.0428 92.2943 88.355 95.7857 79.9285 95.7857C71.4686 95.7857 63.7807 92.2607 58.3086 86.6207C49.4793 89.2729 43 97.4643 43 107.166V122.643C43 124.489 44.5107 126 46.3571 126Z" fill="white"/>
</svg>
