<svg width="125" height="125" viewBox="0 0 125 125" fill="none" xmlns="http://www.w3.org/2000/svg">
<path fill-rule="evenodd" clip-rule="evenodd" d="M27.4712 52.7405C26.0417 55.8485 26.0417 59.3843 26.0417 66.456V88.5413C26.0417 98.3623 26.0417 103.273 29.0927 106.324C32.1024 109.333 36.9216 109.374 46.4792 109.375V83.3333C46.4792 78.8 50.1542 75.125 54.6875 75.125H70.3125C74.8459 75.125 78.5209 78.8 78.5209 83.3333V109.375C88.0784 109.374 92.8977 109.333 95.9074 106.324C98.9584 103.273 98.9584 98.3623 98.9584 88.5413V66.456C98.9584 59.3843 98.9583 55.8485 97.5289 52.7405C96.0994 49.6325 93.4148 47.3314 88.0456 42.7292L82.8372 38.2649C73.1325 29.9465 68.2801 25.7874 62.5 25.7874C56.72 25.7874 51.8676 29.9465 42.1628 38.2649L36.9545 42.7292C31.5853 47.3314 28.9007 49.6325 27.4712 52.7405ZM72.5209 109.375V83.3333C72.5209 82.1137 71.5322 81.125 70.3125 81.125H54.6875C53.4679 81.125 52.4792 82.1137 52.4792 83.3333V109.375H72.5209Z" fill="#255585"/>
</svg>
