<svg width="125" height="125" viewBox="0 0 125 125" fill="none" xmlns="http://www.w3.org/2000/svg">
<path fill-rule="evenodd" clip-rule="evenodd" d="M15.625 19.625C15.625 18.2249 15.625 17.5248 15.8975 16.99C16.1372 16.5196 16.5196 16.1372 16.99 15.8975C17.5248 15.625 18.2249 15.625 19.625 15.625H105.375C106.775 15.625 107.475 15.625 108.01 15.8975C108.48 16.1372 108.863 16.5196 109.103 16.99C109.375 17.5248 109.375 18.2249 109.375 19.625V105.375C109.375 106.775 109.375 107.475 109.103 108.01C108.863 108.48 108.48 108.863 108.01 109.103C107.475 109.375 106.775 109.375 105.375 109.375H19.625C18.2249 109.375 17.5248 109.375 16.99 109.103C16.5196 108.863 16.1372 108.48 15.8975 108.01C15.625 107.475 15.625 106.775 15.625 105.375V19.625ZM57.1649 60.5C56.183 52.8151 49.6185 46.875 41.6667 46.875C33.0372 46.875 26.0417 53.8706 26.0417 62.5C26.0417 71.1294 33.0372 78.125 41.6667 78.125C49.6185 78.125 56.183 72.1849 57.1649 64.5H74.9166V72.9167C74.9166 74.0212 75.8121 74.9167 76.9166 74.9167C78.0212 74.9167 78.9166 74.0212 78.9166 72.9167V64.5H90.5416V72.9167C90.5416 74.0212 91.4371 74.9167 92.5416 74.9167C93.6462 74.9167 94.5416 74.0212 94.5416 72.9167V62.65C94.5416 61.4626 93.5791 60.5 92.3916 60.5H76.9166H57.1649ZM53.2917 62.5C53.2917 68.9203 48.087 74.125 41.6667 74.125C35.2464 74.125 30.0417 68.9203 30.0417 62.5C30.0417 56.0797 35.2464 50.875 41.6667 50.875C48.087 50.875 53.2917 56.0797 53.2917 62.5Z" fill="#255585"/>
</svg>
