<svg width="125" height="125" viewBox="0 0 125 125" fill="none" xmlns="http://www.w3.org/2000/svg">
<path fill-rule="evenodd" clip-rule="evenodd" d="M17.3824 33.0074C15.625 34.7647 15.625 37.5931 15.625 43.25V81.75C15.625 87.4069 15.625 90.2353 17.3824 91.9926C19.1397 93.75 21.9681 93.75 27.625 93.75H82.1195C85.2633 93.75 86.8352 93.75 88.1617 93.04C89.4883 92.3301 90.3602 91.0222 92.1041 88.4064L104.937 69.1564C107.088 65.9299 108.164 64.3167 108.164 62.5C108.164 60.6833 107.088 59.0701 104.937 55.8436L92.1041 36.5936C90.3602 33.9778 89.4883 32.6699 88.1617 31.96C86.8352 31.25 85.2633 31.25 82.1195 31.25H27.625C21.9681 31.25 19.1397 31.25 17.3824 33.0074ZM78.125 72.9167C83.878 72.9167 88.5417 68.253 88.5417 62.5C88.5417 56.747 83.878 52.0833 78.125 52.0833C72.372 52.0833 67.7083 56.747 67.7083 62.5C67.7083 68.253 72.372 72.9167 78.125 72.9167Z" fill="#255585"/>
</svg>
