<svg width="158" height="159" viewBox="0 0 158 159" fill="none" xmlns="http://www.w3.org/2000/svg">
<ellipse cx="79" cy="79.5" rx="79" ry="79.5" fill="#255585"/>
<path d="M103.419 93.8034L94.9336 102.273L115.099 125.388C115.84 126.215 116.742 126.884 117.749 127.355C118.756 127.825 119.849 128.088 120.96 128.126C122.072 128.165 123.18 127.978 124.217 127.579C125.255 127.179 126.2 126.574 126.998 125.8C127.762 124.999 128.359 124.053 128.752 123.019C129.145 121.984 129.328 120.882 129.289 119.777C129.25 118.671 128.99 117.584 128.524 116.58C128.059 115.576 127.397 114.675 126.578 113.93L103.419 93.8034Z" fill="white"/>
<path d="M89.4001 84.53V64.7067H85.7667V88.1676C87.0767 87.0576 88.292 85.8409 89.4001 84.53Z" fill="#255585"/>
<path d="M60.3333 73.7733H56.7V94.1679C57.8925 94.5268 59.1058 94.8127 60.3333 95.0238V73.7733Z" fill="#255585"/>
<path d="M38.804 91.6401C44.4581 97.2875 51.7482 101.017 59.6427 102.302C67.5372 103.586 75.6365 102.36 82.7946 98.7973C83.1365 98.627 83.5235 98.5686 83.9005 98.6305C84.2775 98.6924 84.6254 98.8713 84.8947 99.1419L87.6197 101.88C87.9662 102.207 88.4252 102.39 88.9023 102.39C89.3794 102.39 89.8383 102.207 90.1848 101.88L103.029 89.0615C103.369 88.7216 103.56 88.2608 103.56 87.7804C103.56 87.3 103.369 86.8393 103.029 86.4993L100.285 83.7793C100.014 83.5105 99.8351 83.1633 99.7732 82.7869C99.7112 82.4106 99.7697 82.0243 99.9403 81.6831C103.068 75.4097 104.4 68.3967 103.792 61.416C103.183 54.4352 100.656 47.7576 96.4896 42.118C92.3232 36.4784 86.6787 32.0957 80.1774 29.4523C73.6761 26.8088 66.5701 26.0072 59.6417 27.1356C52.7134 28.264 46.2312 31.2786 40.9089 35.8478C35.5866 40.4169 31.6306 46.3632 29.4762 53.0322C27.3218 59.7012 27.0527 66.8342 28.6985 73.6461C30.3442 80.4579 33.8411 86.6844 38.804 91.6401ZM65.7834 30.2533C66.2652 30.2533 66.7272 30.4444 67.0679 30.7844C67.4086 31.1245 67.6 31.5857 67.6 32.0667C67.6 32.5476 67.4086 33.0088 67.0679 33.3489C66.7272 33.6889 66.2652 33.88 65.7834 33.88C60.4518 33.8755 55.2101 35.25 50.5691 37.8693C45.9281 40.4887 42.0462 44.2637 39.3018 48.8262C36.5573 53.3888 35.044 58.5832 34.9094 63.9033C34.7747 69.2233 36.0233 74.4874 38.5334 79.1825V77.4C38.5334 76.4381 38.9161 75.5157 39.5975 74.8356C40.2789 74.1554 41.2031 73.7733 42.1667 73.7733H45.8C46.7636 73.7733 47.6878 74.1554 48.3692 74.8356C49.0506 75.5157 49.4334 76.4381 49.4334 77.4V90.8187C50.5993 91.5507 51.8131 92.2038 53.0667 92.7734V73.7733C53.0667 72.8115 53.4495 71.889 54.1309 71.2089C54.8122 70.5288 55.7364 70.1467 56.7 70.1467H60.3334C61.297 70.1467 62.2211 70.5288 62.9025 71.2089C63.5839 71.889 63.9667 72.8115 63.9667 73.7733V95.4409C64.5716 95.4771 65.1693 95.5333 65.7834 95.5333C66.3974 95.5333 66.9951 95.4771 67.6 95.4409V77.4C67.6 76.4381 67.9828 75.5157 68.6642 74.8356C69.3456 74.1554 70.2697 73.7733 71.2334 73.7733H74.8667C75.8303 73.7733 76.7545 74.1554 77.4358 74.8356C78.1172 75.5157 78.5 76.4381 78.5 77.4V92.7662C79.7534 92.1989 80.9672 91.5482 82.1333 90.8187V64.7067C82.1333 63.7448 82.5161 62.8224 83.1975 62.1422C83.8789 61.4621 84.8031 61.08 85.7667 61.08H89.4C90.3636 61.08 91.2878 61.4621 91.9692 62.1422C92.6506 62.8224 93.0334 63.7448 93.0334 64.7067V79.1825C95.2675 75.0027 96.5058 70.3649 96.6518 65.6297C96.7979 60.8944 95.8478 56.1894 93.8754 51.8803C91.9031 47.5713 88.9616 43.7744 85.2797 40.7848C81.5979 37.7953 77.2748 35.6937 72.6467 34.6434C72.4122 34.5925 72.1901 34.4956 71.9933 34.3585C71.7965 34.2213 71.6288 34.0466 71.5 33.8444C71.3713 33.6422 71.2839 33.4166 71.243 33.1805C71.2021 32.9444 71.2085 32.7026 71.2618 32.469C71.3151 32.2354 71.4142 32.0146 71.5535 31.8195C71.6927 31.6244 71.8694 31.4587 72.0731 31.3321C72.2769 31.2055 72.5038 31.1204 72.7407 31.0819C72.9776 31.0433 73.2198 31.052 73.4533 31.1074C82.0622 33.0564 89.5971 38.221 94.5109 45.541C99.4248 52.8611 101.345 61.781 99.8769 70.4697C98.409 79.1584 93.6645 86.9566 86.6173 92.2632C79.5702 97.5699 70.7552 99.9824 61.9821 99.0054C53.2089 98.0285 45.1433 93.7363 39.441 87.0099C33.7388 80.2836 30.8325 71.6335 31.3189 62.8355C31.8054 54.0376 35.6476 45.7592 42.0568 39.7001C48.4659 33.6409 56.9558 30.2607 65.7834 30.2533ZM72.7684 61.8597L82.4385 47.3803C82.571 47.1821 82.7412 47.012 82.9394 46.8795C83.1377 46.7471 83.3602 46.6549 83.5942 46.6082C83.8282 46.5616 84.0691 46.5614 84.3031 46.6077C84.5372 46.654 84.7598 46.7458 84.9583 46.878C85.1568 47.0101 85.3272 47.18 85.4599 47.3779C85.5926 47.5759 85.685 47.7979 85.7317 48.0315C85.7785 48.265 85.7786 48.5055 85.7323 48.7391C85.6859 48.9727 85.5939 49.1949 85.4615 49.3931L74.5615 65.7131C74.4136 65.9375 74.2175 66.1263 73.9875 66.2659C73.7576 66.4054 73.4994 66.4922 73.2317 66.52C73.1712 66.5236 73.1105 66.5236 73.05 66.52C72.5682 66.5199 72.1062 66.3288 71.7656 65.9887L65.7834 60.0174L59.8011 65.9887C59.4604 66.3286 58.9984 66.5196 58.5167 66.5196C58.035 66.5196 57.573 66.3286 57.2323 65.9887L51.25 60.0174L45.2677 65.9887C44.9251 66.319 44.4662 66.5018 43.9899 66.4976C43.5136 66.4935 43.0579 66.3028 42.7211 65.9666C42.3843 65.6304 42.1932 65.1756 42.1891 64.7001C42.1849 64.2247 42.368 63.7666 42.699 63.4246L49.9656 56.1713C50.3063 55.8314 50.7683 55.6404 51.25 55.6404C51.7317 55.6404 52.1937 55.8314 52.5344 56.1713L58.5167 62.1426L64.499 56.1713C64.8396 55.8314 65.3016 55.6404 65.7834 55.6404C66.2651 55.6404 66.7271 55.8314 67.0677 56.1713L72.7684 61.8597Z" fill="white"/>
<path d="M45.8 88.1676V77.4H42.1666V84.53C43.2747 85.841 44.49 87.0577 45.8 88.1676Z" fill="#255585"/>
<path d="M74.8666 77.4H71.2333V95.0238C72.4607 94.8127 73.6741 94.5269 74.8666 94.1679V77.4Z" fill="#255585"/>
</svg>
