<svg width="158" height="159" viewBox="0 0 158 159" fill="none" xmlns="http://www.w3.org/2000/svg">
<ellipse cx="79" cy="79.5" rx="79" ry="79.5" fill="#255585"/>
<path d="M73.3202 95.3481C82.0979 95.3867 82.0979 87.7858 73.3202 87.8243C64.5425 87.7857 64.5425 95.3866 73.3202 95.3481ZM73.3202 90.1394C75.288 90.1394 77.5065 90.7374 77.6029 91.5862C77.2171 93.4768 69.4233 93.4768 69.0374 91.5862C69.1339 90.7373 71.3525 90.1394 73.3202 90.1394Z" fill="white"/>
<path d="M119.292 50.6492C116.997 45.5562 112.193 42.4309 106.81 42.508C95.3317 42.4695 88.6181 56.0894 96.2958 65.5035H92.3024C91.9358 63.4778 91.7622 62.2239 89.6594 61.9731C90.1031 57.3624 86.9393 53.2918 82.1742 53.2726H63.674C58.9282 53.3112 55.7452 57.3817 56.1888 61.9731C54.0861 62.2239 53.9124 63.4586 53.5459 65.5035H44.6331C41.5272 65.5035 39 68.0307 39 71.1366V90.8716C39 92.0291 39.4244 93.1866 40.2347 94.2283V111.321C40.2347 114.523 42.839 117.128 46.0415 117.128H100.598C103.8 117.128 106.405 114.523 106.405 111.321V94.2283C107.215 93.1865 107.639 92.029 107.639 90.8716V85.2963C108.778 85.3735 109.723 84.4282 109.665 83.29C111.652 82.827 113.118 81.5151 113.273 79.7789C113.504 77.7726 113.909 74.4737 114.179 72.1009C114.642 69.9209 115.491 67.7988 116.88 66.024C120.719 61.7219 121.645 55.8188 119.292 50.6104L119.292 50.6492ZM101.91 73.3364C105.132 74.2045 108.469 74.2045 111.71 73.3364C111.672 73.6644 111.633 74.0116 111.595 74.3589C108.411 75.227 105.209 75.227 102.026 74.3589C101.987 74.0117 101.949 73.6837 101.91 73.3558L101.91 73.3364ZM89.7175 64.443L89.9297 65.504H87.0359C87.0359 65.4654 87.2674 64.3272 87.2867 64.3465C87.4796 64.2307 88.1548 64.2886 88.4828 64.2886C88.8107 64.2886 89.4859 64.25 89.6788 64.3465C89.6788 64.3465 89.6788 64.3657 89.7174 64.4622L89.7175 64.443ZM63.6739 55.5881H82.1741C85.0293 55.5881 87.3443 57.9032 87.3443 60.7583V61.993C85.2416 62.2438 85.0679 63.4784 84.7014 65.5041H61.1656C60.7991 63.4784 60.6255 62.2438 58.5227 61.993V60.7583C58.5227 57.9032 60.8377 55.5881 63.6929 55.5881H63.6739ZM56.1309 64.443C56.1309 64.3851 56.1694 64.3465 56.1694 64.3465C56.3624 64.2307 57.0376 64.2886 57.3655 64.2886C57.6934 64.2886 58.3686 64.25 58.5615 64.3465C58.6001 64.3465 58.793 65.4654 58.8123 65.5233H55.9186L56.1308 64.4623L56.1309 64.443ZM41.3149 71.1565C41.3149 69.3237 42.8003 67.8383 44.633 67.8383H54.4911H97.8971C98.5916 69.0343 99.0739 70.3076 99.3825 71.6581C99.5948 73.8573 100.096 77.6577 100.328 79.8184C100.54 81.6897 102.238 82.9822 104.032 83.3874C104.013 84.3134 104.553 84.9886 105.324 85.2394V90.9112C105.324 91.625 105.016 92.358 104.398 93.0718C102.199 95.4061 99.9999 95.5798 96.9132 96.0042V94.0751C96.9132 93.4384 96.3924 92.9175 95.7557 92.9175H89.4859C88.8493 92.9175 88.3284 93.4384 88.3284 94.0751V96.8145C83.1582 97.1424 78.5668 97.509 73.3197 97.509C68.0727 97.509 63.481 97.1231 58.3111 96.8145V94.0751C58.3111 93.4384 57.7902 92.9175 57.1536 92.9175H50.8838C50.2471 92.9175 49.7262 93.4384 49.7262 94.0751V96.0042C46.6203 95.5798 44.4403 95.4062 42.2411 93.0718C41.6237 92.358 41.3151 91.625 41.3151 90.9112L41.3149 71.1565ZM91.2606 100.769H93.9615V103.99C93.9615 104.724 93.3634 105.341 92.611 105.341C91.8587 105.341 91.2606 104.743 91.2606 103.99V100.769ZM90.6433 98.4537V95.2127H94.5981V98.4537H90.6433ZM52.6768 100.769H55.3776V103.99C55.3776 104.724 54.7796 105.341 54.0272 105.341C53.2748 105.341 52.6768 104.743 52.6768 103.99V100.769ZM52.0401 98.4537V95.2127H55.9949V98.4537H52.0401ZM100.597 114.832H46.0406C44.1115 114.832 42.5488 113.27 42.5488 111.34V96.3121C44.7481 97.7589 47.1402 97.9519 49.7253 98.3184V99.6109C49.7253 100.055 49.9761 100.44 50.3426 100.633V103.99C50.3426 106.016 51.9824 107.656 54.008 107.656C56.0335 107.656 57.6734 106.016 57.6734 103.99V100.633C58.2714 100.325 58.3293 99.746 58.2907 99.1287C63.4609 99.4567 68.0138 99.8232 73.2993 99.8232C78.5853 99.8232 83.138 99.4567 88.3079 99.1287C88.2694 99.746 88.3465 100.344 88.9253 100.633V103.99C88.9253 106.016 90.5651 107.656 92.5907 107.656C94.6162 107.656 96.256 106.016 96.256 103.99V100.633C96.6226 100.441 96.8734 100.055 96.8734 99.6109V98.3184C99.4585 97.9518 101.851 97.7589 104.05 96.3121V111.34C104.05 113.27 102.487 114.832 100.558 114.832H100.597ZM109.317 81.0143C107.639 81.4773 103.182 81.8438 102.623 79.5096C102.546 78.7572 102.43 77.8118 102.295 76.8087C105.285 77.5032 108.295 77.5032 111.285 76.8087C111.169 77.8312 111.053 78.7957 110.957 79.5288C110.88 80.204 110.32 80.7056 109.317 81.0143ZM115.143 64.5389C113.696 66.3716 112.674 68.5129 112.133 70.7893C108.642 71.9661 105.015 71.9661 101.581 70.8279C101.156 69.1302 100.481 67.5291 99.5356 66.0629C98.2431 64.3074 95.2529 60.3526 95.2722 57.2466C95.2722 50.1859 100.249 44.8416 106.847 44.8416C116.763 44.5908 122.011 57.4007 115.162 64.5578L115.143 64.5389Z" fill="white"/>
<path d="M106.811 40.7135C107.448 40.7135 107.969 40.1927 107.969 39.556V35.1575C107.969 34.5209 107.448 34 106.811 34C106.174 34 105.654 34.5209 105.654 35.1575V39.556C105.654 40.1926 106.174 40.7135 106.811 40.7135Z" fill="white"/>
<path d="M128.437 55.9543H124.038C122.514 55.9929 122.514 58.2308 124.038 58.2694H128.437C129.961 58.2308 129.961 55.993 128.437 55.9543Z" fill="white"/>
<path d="M93.6347 45.3441C94.7343 46.4051 96.3356 44.8039 95.2745 43.7042L92.1686 40.5983C91.069 39.5373 89.4677 41.1385 90.5288 42.2381L93.6347 45.3441Z" fill="white"/>
<path d="M119.871 68.3206C118.771 67.2596 117.17 68.8608 118.231 69.9605L121.337 73.0664C122.437 74.1274 124.038 72.5262 122.977 71.4266L119.871 68.3206Z" fill="white"/>
<path d="M119.061 45.9228C119.35 45.9228 119.659 45.8071 119.871 45.5756L122.977 42.4696C124.038 41.37 122.437 39.7688 121.337 40.8298L118.232 43.9357C117.498 44.6302 118.058 45.942 119.042 45.9035L119.061 45.9228Z" fill="white"/>
<path d="M88.213 50.3597L90.2387 51.1893C90.8174 51.4208 91.5119 51.1507 91.7434 50.5527C91.9942 49.9546 91.7048 49.2794 91.1068 49.048L89.0811 48.2184C87.6535 47.6782 86.8047 49.7425 88.1937 50.3598L88.213 50.3597Z" fill="white"/>
<path d="M125.331 63.2269L123.267 62.3588C122.669 62.108 121.994 62.3974 121.743 62.9762C121.492 63.5742 121.782 64.2494 122.36 64.5002C122.688 64.5967 124.56 65.5034 124.868 65.4455C126.103 65.4455 126.469 63.7093 125.312 63.227L125.331 63.2269Z" fill="white"/>
<path d="M113.042 41.9878C113.621 42.2386 114.315 41.9685 114.546 41.3705L115.395 39.3256C115.955 37.898 113.891 37.0299 113.254 38.4382L112.405 40.4831C112.154 41.0811 112.444 41.7564 113.022 42.0072L113.042 41.9878Z" fill="white"/>
<path d="M121.646 50.6107C121.878 51.2088 122.572 51.4981 123.151 51.2473L125.215 50.4178C126.623 49.8198 125.774 47.7363 124.347 48.2764L122.283 49.1059C121.685 49.3374 121.395 50.0127 121.646 50.6107Z" fill="white"/>
<path d="M99.1325 41.2924C99.7305 42.7007 101.833 41.8326 101.274 40.405L100.444 38.3601C100.194 37.762 99.5183 37.492 98.9396 37.7235C98.3416 37.9743 98.0715 38.6495 98.303 39.2282L99.1325 41.2731L99.1325 41.2924Z" fill="white"/>
</svg>
