<svg width="158" height="158" viewBox="0 0 158 158" fill="none" xmlns="http://www.w3.org/2000/svg">
<circle cx="79" cy="79" r="79" fill="#255585"/>
<path d="M42.6818 125.046H57.4091V106.636C57.4091 104.611 59.0659 102.955 61.0909 102.955C63.1159 102.955 64.7727 104.611 64.7727 106.636V125.046H94.2273V106.636C94.2273 104.611 95.8841 102.955 97.9091 102.955C99.9341 102.955 101.591 104.611 101.591 106.636V125.046H116.318C118.343 125.046 120 123.389 120 121.364V104.391C120 93.7501 112.894 84.7664 103.211 81.8578C97.2095 88.0432 88.7782 91.9092 79.5 91.9092C70.2218 91.9092 61.7905 88.0432 55.7891 81.8578C46.1059 84.7664 39 93.7501 39 104.391V121.364C39 123.389 40.6568 125.046 42.6818 125.046Z" fill="white"/>
<path d="M79.5 84.5455C93.7339 84.5455 105.273 73.0066 105.273 58.7727C105.273 44.5388 93.7339 33 79.5 33C65.2661 33 53.7273 44.5388 53.7273 58.7727C53.7273 73.0066 65.2661 84.5455 79.5 84.5455Z" fill="white"/>
</svg>
