<svg width="125" height="125" viewBox="0 0 125 125" fill="none" xmlns="http://www.w3.org/2000/svg">
<path d="M62.5 67.7083V108.473C62.5 108.872 62.5 109.071 62.3712 109.143C62.2424 109.214 62.0733 109.108 61.735 108.897L21.7733 83.9208C21.3138 83.6336 21.0841 83.49 20.9587 83.2639C20.8333 83.0377 20.8333 82.7667 20.8333 82.2248V41.6667M62.5 67.7083L20.8333 41.6667M62.5 67.7083L101.453 43.3627C102.671 42.6015 103.28 42.2209 103.28 41.6667C103.28 41.1124 102.671 40.7318 101.453 39.9707L63.56 16.2875C63.0445 15.9653 62.7868 15.8042 62.5 15.8042C62.2132 15.8042 61.9555 15.9653 61.44 16.2875L20.8333 41.6667" stroke="#255585" stroke-width="6" stroke-linejoin="round"/>
<path d="M101.167 62.5C101.167 64.1568 102.51 65.5 104.167 65.5C105.824 65.5 107.167 64.1568 107.167 62.5H101.167ZM104.041 41.7361L101.417 43.1904L104.041 41.7361ZM101.167 42.7751V62.5H107.167V42.7751H101.167ZM104.817 38.5352L84.9233 26.1018L81.7433 31.1898L101.637 43.6231L104.817 38.5352ZM107.167 42.7751C107.167 42.5606 107.17 42.1908 107.137 41.8515C107.099 41.4485 106.997 40.8803 106.665 40.2818L101.417 43.1904C101.321 43.016 101.257 42.8455 101.216 42.6954C101.179 42.5553 101.168 42.454 101.165 42.423C101.162 42.3954 101.164 42.4009 101.165 42.4719C101.167 42.5434 101.167 42.6316 101.167 42.7751H107.167ZM101.637 43.6231C101.758 43.6992 101.833 43.7461 101.893 43.7851C101.953 43.8238 101.956 43.8284 101.934 43.8115C101.91 43.7926 101.83 43.7294 101.731 43.6233C101.625 43.5095 101.514 43.3648 101.417 43.1904L106.665 40.2818C106.334 39.6834 105.906 39.2958 105.584 39.0496C105.314 38.8422 104.999 38.6488 104.817 38.5352L101.637 43.6231Z" fill="#255585"/>
<circle cx="91.1458" cy="85.9375" r="13.0208" stroke="#255585" stroke-width="6"/>
<path d="M109.375 104.167L101.562 96.3542" stroke="#255585" stroke-width="6" stroke-linecap="round"/>
<path d="M74.5067 105.409C75.9117 104.53 76.3388 102.68 75.4607 101.275C74.5825 99.8696 72.7317 99.4425 71.3267 100.321L74.5067 105.409ZM67.7083 106.12L66.1183 103.576L67.7083 106.12ZM61.44 108.713L59.85 111.257L61.44 108.713ZM63.56 108.713L61.97 106.169L63.56 108.713ZM62.5 109.196L62.5 112.196L62.5 109.196ZM63.03 106.169L43.2567 93.8102L40.0767 98.8982L59.85 111.257L63.03 106.169ZM66.1183 103.576L61.97 106.169L65.15 111.257L69.2983 108.664L66.1183 103.576ZM71.3267 100.321L68.7225 101.948L71.9025 107.036L74.5067 105.409L71.3267 100.321ZM68.7225 101.948L66.1183 103.576L69.2983 108.664L71.9025 107.036L68.7225 101.948ZM59.85 111.257C60.0551 111.385 60.4006 111.605 60.7379 111.77C61.1382 111.966 61.7386 112.196 62.5 112.196L62.5 106.196C62.7212 106.196 62.9212 106.229 63.0882 106.275C63.2432 106.318 63.3449 106.366 63.3736 106.38C63.3992 106.392 63.3907 106.39 63.3211 106.348C63.2513 106.307 63.1663 106.254 63.03 106.169L59.85 111.257ZM61.97 106.169C61.8337 106.254 61.7487 106.307 61.6789 106.348C61.6093 106.39 61.6008 106.392 61.6264 106.38C61.6551 106.366 61.7568 106.318 61.9118 106.275C62.0788 106.229 62.2789 106.196 62.5 106.196L62.5 112.196C63.2614 112.196 63.8618 111.966 64.2621 111.77C64.5994 111.605 64.9449 111.385 65.15 111.257L61.97 106.169Z" fill="#255585"/>
</svg>
