<svg width="125" height="125" viewBox="0 0 125 125" fill="none" xmlns="http://www.w3.org/2000/svg">
<path fill-rule="evenodd" clip-rule="evenodd" d="M25.1102 75.1088C27.1611 81.1917 30.6718 86.7003 35.3564 91.1404C40.8914 96.3866 47.828 99.9164 55.3271 101.303C62.8261 102.689 70.5662 101.873 77.611 98.9523C84.6558 96.0319 90.7033 91.1326 95.022 84.8471C99.3407 78.5617 101.745 71.1594 101.945 63.5359C102.145 55.9124 100.131 48.3943 96.148 41.8912C92.1646 35.3882 86.382 30.1788 79.4999 26.8933C72.6178 23.6078 64.9311 22.387 57.3697 23.3786L58.1499 29.3277C64.5615 28.4868 71.0794 29.522 76.915 32.3079C82.7506 35.0938 87.6539 39.5111 91.0316 45.0253C94.4093 50.5395 96.1167 56.9144 95.9473 63.3787C95.7778 69.843 93.7388 76.1196 90.0768 81.4493C86.4148 86.779 81.2869 90.9333 75.3133 93.4097C69.3398 95.886 62.7766 96.5783 56.4179 95.4027C50.0591 94.2272 44.1773 91.2341 39.4839 86.7857C35.6044 83.1086 32.6743 78.5673 30.9195 73.5522L25.1102 75.1088Z" fill="#255585"/>
<path d="M49.2787 13.1573C49.1562 12.7002 49.0949 12.4716 48.9121 12.3684C48.7293 12.2652 48.505 12.33 48.0564 12.4594C41.8111 14.2621 35.9554 17.2188 30.7937 21.1795C25.3674 25.3432 20.8143 30.535 17.3945 36.4583C13.9747 42.3817 11.755 48.9206 10.8622 55.7018C10.013 62.1523 10.3803 68.7018 11.9418 75.0118C12.054 75.465 12.1101 75.6916 12.2909 75.7983C12.4716 75.9051 12.7002 75.8438 13.1573 75.7213L61.5341 62.7588C61.9894 62.6368 62.2171 62.5758 62.3206 62.3964C62.4242 62.2171 62.3632 61.9894 62.2412 61.5341L49.2787 13.1573Z" fill="#255585"/>
</svg>
