<svg width="125" height="125" viewBox="0 0 125 125" fill="none" xmlns="http://www.w3.org/2000/svg">
<path fill-rule="evenodd" clip-rule="evenodd" d="M50.2702 22.6569C33.2261 27.8821 20.8331 43.7437 20.8331 62.5C20.8331 65.7085 21.1957 68.8323 21.8823 71.8327L60.6626 61.4415L50.2702 22.6569ZM53.1685 21.8822L63.6898 61.148L63.7014 61.1915L63.7015 61.1916C63.7514 61.3773 63.8219 61.6392 63.8529 61.8792C63.8919 62.182 63.9011 62.6607 63.6194 63.1487C63.3377 63.6366 62.9184 63.868 62.6368 63.9856C62.4134 64.0788 62.1514 64.1487 61.9656 64.1983L61.9654 64.1983L61.922 64.2099L22.6571 74.7309C27.8828 91.7743 43.7441 104.167 62.4997 104.167C85.5116 104.167 104.166 85.5118 104.166 62.5C104.166 39.4881 85.5116 20.8333 62.4997 20.8333C59.2917 20.8333 56.1684 21.1958 53.1685 21.8822Z" fill="#255585"/>
<path d="M49.5375 14.1232C49.2916 13.2057 49.1687 12.747 48.7962 12.5413C48.4237 12.3357 47.9819 12.4725 47.0984 12.746C41.2121 14.5681 35.6906 17.422 30.7937 21.1795C25.3674 25.3432 20.8143 30.535 17.3945 36.4583C13.9747 42.3817 11.755 48.9206 10.8622 55.7018C10.0566 61.8214 10.3458 68.0301 11.7109 74.0388C11.9158 74.9407 12.0183 75.3917 12.3826 75.6115C12.747 75.8313 13.2057 75.7084 14.1232 75.4625L60.5681 63.0176C61.4788 62.7736 61.9342 62.6516 62.1413 62.2929C62.3484 61.9342 62.2264 61.4788 61.9824 60.5681L49.5375 14.1232Z" fill="#255585"/>
</svg>
