<svg width="125" height="125" viewBox="0 0 125 125" fill="none" xmlns="http://www.w3.org/2000/svg">
<path d="M107.778 90.2571C109.639 83.3121 109.877 76.032 108.474 68.9801C107.072 61.9282 104.065 55.2936 99.6884 49.5893C95.3114 43.8851 89.6808 39.2642 83.2323 36.0841C76.7837 32.904 69.69 31.25 62.5 31.25C55.31 31.25 48.2163 32.904 41.7677 36.0841C35.3192 39.2642 29.6886 43.8851 25.3116 49.5893C20.9345 55.2936 17.9284 61.9283 16.5257 68.9801C15.123 76.032 15.3613 83.3121 17.2222 90.2571" stroke="#255585" stroke-width="5" stroke-linecap="round"/>
<path d="M66.488 81.1578C69.0269 84.8524 67.2414 90.4887 62.5001 93.7469C57.7587 97.0052 51.8569 96.6514 49.318 92.9569C45.8648 87.9317 31.6042 53.2572 27.956 44.3295C27.7532 43.8333 28.36 43.4163 28.7506 43.7835C35.7771 50.3897 63.0348 76.1326 66.488 81.1578Z" stroke="#255585" stroke-width="5"/>
<path d="M62.5 31.25V41.6667" stroke="#255585" stroke-width="5" stroke-linecap="round"/>
<path d="M29.3541 44.9778L36.7198 52.3435" stroke="#255585" stroke-width="5" stroke-linecap="round"/>
<path d="M95.6459 44.9778L88.2802 52.3435" stroke="#255585" stroke-width="5" stroke-linecap="round"/>
<path d="M107.778 90.2557L97.7162 87.5597" stroke="#255585" stroke-width="5" stroke-linecap="round"/>
<path d="M17.2221 90.2557L27.2838 87.5597" stroke="#255585" stroke-width="5" stroke-linecap="round"/>
</svg>
