<svg width="158" height="159" viewBox="0 0 158 159" fill="none" xmlns="http://www.w3.org/2000/svg">
<ellipse cx="79" cy="79.5" rx="79" ry="79.5" fill="#255585"/>
<path fill-rule="evenodd" clip-rule="evenodd" d="M119.157 42.6507L120.229 46.6555C123.63 42.3151 124.58 38.3271 122.62 36.3722C120.438 34.1914 116.193 35.7653 112.339 38.7684L116.343 39.8408C116.812 39.5585 117.298 39.305 117.798 39.0819C119.54 38.3134 120.287 38.5192 120.38 38.6121C120.654 38.8855 120.503 40.3897 119.154 42.6539L119.157 42.6507ZM72.979 70.3202C72.6405 70.6585 72.41 71.0897 72.3166 71.5591C72.2232 72.0285 72.2711 72.515 72.4543 72.9572C72.6374 73.3993 72.9476 73.7772 73.3455 74.0431C73.7435 74.3089 74.2113 74.4507 74.6898 74.4506C75.0876 74.4505 75.4792 74.3523 75.83 74.1647C76.1808 73.9771 76.4799 73.7059 76.7008 73.375C76.9217 73.0442 77.0577 72.664 77.0967 72.2681C77.1356 71.8722 77.0763 71.4728 76.9241 71.1053C76.7719 70.7378 76.5314 70.4135 76.2239 70.1611C75.9164 69.9087 75.5514 69.7361 75.1613 69.6584C74.7712 69.5808 74.3679 69.6005 73.9873 69.716C73.6066 69.8314 73.2603 70.0389 72.979 70.3202ZM74.6898 77.6173C73.3973 77.6181 72.1444 77.1707 71.1447 76.3512C70.1451 75.5317 69.4605 74.3908 69.2076 73.1231C68.9548 71.8554 69.1493 70.5392 69.7581 69.3988C70.3669 68.2584 71.3522 67.3645 72.5462 66.8693C73.7402 66.3741 75.0689 66.3083 76.306 66.6831C77.543 67.0579 78.6118 67.8501 79.3303 68.9247C80.0487 69.9994 80.3723 71.2899 80.246 72.5764C80.1196 73.863 79.551 75.0658 78.6372 75.9801C78.1203 76.5006 77.5052 76.9133 76.8276 77.1943C76.15 77.4754 75.4234 77.6191 74.6898 77.6173ZM58.6818 82.7251C58.2619 82.7251 57.8593 82.892 57.5623 83.1889C57.2654 83.4858 57.0986 83.8886 57.0986 84.3085C57.0986 84.7284 57.2654 85.1311 57.5623 85.4281C57.8593 85.725 58.2619 85.8918 58.6818 85.8918H90.6979C91.1177 85.8918 91.5204 85.725 91.8173 85.4281C92.1142 85.1311 92.281 84.7284 92.281 84.3085C92.281 83.8886 92.1142 83.4858 91.8173 83.1889C91.5204 82.892 91.1177 82.7251 90.6979 82.7251H58.6818ZM76.3986 98.2968C76.795 97.9008 77.0418 97.3795 77.097 96.8218C77.1521 96.2642 77.0121 95.7047 76.7009 95.2387C76.3897 94.7727 75.9265 94.4291 75.3903 94.2664C74.8541 94.1038 74.2781 94.1321 73.7605 94.3467C73.2429 94.5612 72.8157 94.9487 72.5518 95.443C72.2878 95.9373 72.2035 96.5079 72.3131 97.0574C72.4227 97.607 72.7196 98.1015 73.153 98.4566C73.5864 98.8118 74.1295 99.0056 74.6898 99.0051C75.3307 99.0046 75.9453 98.7499 76.3986 98.2968ZM78.6372 92.6337C79.4183 93.4147 79.9503 94.4099 80.1658 95.4933C80.3814 96.5767 80.2708 97.6997 79.8482 98.7203C79.4255 99.7408 78.7098 100.613 77.7914 101.227C76.873 101.841 75.7933 102.168 74.6888 102.168C73.5843 102.168 72.5045 101.841 71.5862 101.227C70.6678 100.613 69.952 99.7408 69.5294 98.7203C69.1068 97.6997 68.9962 96.5767 69.2118 95.4933C69.4273 94.4099 69.9593 93.4147 70.7404 92.6337C71.788 91.5873 73.2081 90.9995 74.6888 90.9995C76.1694 90.9995 77.5896 91.5873 78.6372 92.6337ZM67.2837 119.959L39.042 91.7154L82.0907 48.6579L110.337 76.9058L67.2837 119.959ZM83.2147 45.2991L113.695 75.7827C113.992 76.0796 114.159 76.4823 114.159 76.9021C114.159 77.322 113.992 77.7246 113.695 78.0216L68.4025 123.318C68.2555 123.465 68.0809 123.582 67.8888 123.661C67.6966 123.741 67.4907 123.782 67.2827 123.782C67.0747 123.782 66.8687 123.741 66.6766 123.661C66.4845 123.582 66.3099 123.465 66.1629 123.318L35.6836 92.8332C35.3871 92.5363 35.2206 92.1339 35.2206 91.7143C35.2206 91.2947 35.3871 90.8923 35.6836 90.5954L80.9751 45.2991C81.1221 45.152 81.2966 45.0353 81.4888 44.9556C81.6809 44.876 81.8869 44.835 82.0949 44.835C82.3029 44.835 82.5088 44.876 82.701 44.9556C82.8931 45.0353 83.0677 45.152 83.2147 45.2991ZM107.322 51.6716C107.62 51.7962 107.951 51.8144 108.261 51.7233C108.145 51.5178 108.003 51.3283 107.838 51.1596C107.669 50.9924 107.478 50.8486 107.271 50.7321C107.176 51.3243 107.271 51.6156 107.324 51.6716H107.322ZM104.068 51.2303C103.609 51.7255 103.359 52.3791 103.371 53.0542C103.383 53.7294 103.655 54.3739 104.131 54.8528C104.607 55.3318 105.25 55.608 105.925 55.6238C106.6 55.6396 107.255 55.3936 107.753 54.9375C107.262 54.9544 106.773 54.8721 106.314 54.6957C105.856 54.5192 105.438 54.2521 105.085 53.9104C104.745 53.5539 104.481 53.1332 104.306 52.673C104.131 52.2127 104.051 51.7222 104.068 51.2303ZM123.113 75.4027L69.3904 129.131C68.8325 129.687 68.0766 130 67.2885 130C66.5004 130 65.7445 129.687 65.1866 129.131L29.8691 93.817C29.3125 93.259 29 92.503 29 91.7148C29 90.9267 29.3125 90.1707 29.8691 89.6127L83.5989 35.8846C83.8637 35.6065 84.1819 35.3848 84.5345 35.2328C84.8871 35.0808 85.2668 35.0016 85.6507 35C85.9268 34.9996 86.2018 35.035 86.4687 35.1056L109.532 41.288C107.767 43.0474 106.287 45.0713 105.145 47.2867C103.774 47.4893 102.522 48.1776 101.617 49.2262C100.711 50.2749 100.212 51.614 100.211 52.9996C100.21 54.3852 100.707 55.725 101.611 56.775C102.515 57.8249 103.766 58.5151 105.136 58.7197C106.507 58.9243 107.905 58.6297 109.076 57.8897C110.247 57.1496 111.114 56.0133 111.518 54.6878C111.921 53.3623 111.835 51.9359 111.275 50.6685C110.716 49.4011 109.719 48.377 108.467 47.7829C109.455 46.143 110.644 44.6331 112.006 43.2883C112.367 42.9273 112.735 42.5803 113.109 42.2475L115.981 43.017L123.887 72.5284C124.033 73.032 124.038 73.566 123.901 74.0722C123.765 74.5785 123.492 75.0376 123.113 75.3995V75.4027Z" fill="white"/>
</svg>
