<svg width="125" height="125" viewBox="0 0 125 125" fill="none" xmlns="http://www.w3.org/2000/svg">
<circle cx="62.5" cy="62.5" r="46.875" fill="#7E869E" fill-opacity="0.25"/>
<path d="M62.5 96.4541C63.9935 96.4541 65.2042 95.2434 65.2042 93.75C65.2042 92.2565 63.9935 91.0458 62.5 91.0458C61.0066 91.0458 59.7959 92.2565 59.7959 93.75C59.7959 95.2434 61.0066 96.4541 62.5 96.4541Z" fill="#255585" stroke="#255585" stroke-width="0.2"/>
<path d="M62.5 83.3333V78.8709C62.5 75.151 64.3591 71.6772 67.4543 69.6138L70.5713 67.5358C75.2904 64.3897 78.125 59.0932 78.125 53.4215V52.0833C78.125 43.4539 71.1294 36.4583 62.5 36.4583V36.4583C53.8706 36.4583 46.875 43.4539 46.875 52.0833V52.0833" stroke="#255585" stroke-width="1.2"/>
</svg>
