<svg width="158" height="158" viewBox="0 0 158 158" fill="none" xmlns="http://www.w3.org/2000/svg">
<path d="M79 0C35.2867 0 0 35.2867 0 79C0 122.713 35.2867 158 79 158C122.713 158 158 122.713 158 79C158 35.2867 122.713 0 79 0ZM124.996 63.7267C124.996 66.7111 122.713 68.9933 119.729 68.9933H95.1511C92.1667 68.9933 89.8844 66.7111 89.8844 63.7267C89.8844 60.7422 92.1667 58.46 95.1511 58.46H106.562C99.8911 50.2089 89.7089 45.2933 79 45.2933C59.3378 45.2933 43.5378 61.2689 43.5378 80.7556C43.5378 100.242 59.3378 116.393 79 116.393C91.8156 116.393 103.578 109.547 109.898 98.4867C111.302 96.0289 114.638 95.1511 117.096 96.5555C119.553 97.96 120.431 101.296 119.027 103.753C110.776 117.973 95.5022 126.927 79 126.927C53.5444 126.927 33.0044 106.211 33.0044 80.9311C33.0044 55.6511 53.5444 34.76 79 34.76C92.8689 34.76 105.86 41.08 114.462 51.6133V38.9733C114.462 35.9889 116.744 33.7067 119.729 33.7067C122.713 33.7067 124.996 35.9889 124.996 38.9733V63.7267Z" fill="#255585"/>
</svg>
