<svg width="158" height="159" viewBox="0 0 158 159" fill="none" xmlns="http://www.w3.org/2000/svg">
<ellipse cx="79" cy="79.5" rx="79" ry="79.5" fill="#255585"/>
<path d="M54.8914 115.845C55.458 110.159 57.6195 105.111 59.7093 100.231C60.7167 97.8757 61.7607 95.4392 62.5984 92.9779C64.6252 87.0519 63.0251 80.8113 61.334 74.2033C60.3791 70.4752 59.4016 66.6588 59.099 62.8265C58.5289 63.5279 57.9343 64.2205 57.3083 64.899C56.8326 65.4114 56.259 65.9467 55.6469 66.5192C54.762 67.3443 53.7704 68.2719 53.015 69.219L53.2301 124.981C53.2301 124.981 54.2479 125.354 56.1156 125.87C55.1257 122.836 54.5172 119.574 54.8914 115.845Z" fill="white"/>
<path d="M52.2647 59.9307C54.8722 56.6991 56.4671 52.8332 57.282 47.7641C57.7052 45.1368 58.1756 42.3805 58.7685 39.4705C56.154 39.7815 53.7267 39.815 51.6754 40.262C41.9923 42.3699 33 66.1341 33 66.1341L39.5492 71.7969C41.5184 69.7138 43.9387 67.6148 46.2279 65.6341C48.6762 63.5121 50.9898 61.5103 52.2647 59.9307Z" fill="white"/>
<path d="M102.662 66.5192C102.049 65.9467 101.474 65.4114 100.998 64.899C100.372 64.2205 99.7777 63.5279 99.2093 62.8265C98.905 66.6588 97.9275 70.4752 96.9744 74.2033C95.2816 80.8113 93.6814 87.0519 95.7065 92.9779C96.5442 95.4391 97.59 97.8756 98.5973 100.231C100.689 105.111 102.847 110.159 103.415 115.845C103.789 119.574 103.181 122.836 102.189 125.87C101.418 126.084 100.493 126.319 99.4384 126.564C100.649 123.327 101.448 119.993 101.058 116.083C100.526 110.77 98.5308 106.113 96.42 101.183C95.3935 98.7856 94.3337 96.3067 93.4646 93.7607C91.2086 87.1491 92.9714 80.2636 94.6765 73.6025C95.8534 69.0193 97.0583 64.2965 96.9167 59.7345C95.8184 58.0913 94.8584 56.3951 94.0469 54.6547C91.714 49.6422 91.4972 43.2497 91.6091 37.1788L91.8452 37.2918C91.2628 36.9932 90.6752 36.6681 90.0946 36.2829C89.2307 35.7176 88.1237 31 88.1237 31H83.8025H80.1825V61.0225C80.1825 61.595 79.7208 62.0614 79.1542 62.0614C78.5876 62.0614 78.1259 61.595 78.1259 61.0225V31H74.5059H70.1846C70.1846 31 69.0741 35.7176 68.2119 36.2829C67.71 36.6151 67.2046 36.912 66.6975 37.1788C66.8112 43.2497 66.5926 49.6422 64.2614 54.6547C63.45 56.3951 62.4882 58.0913 61.3882 59.7345C61.2483 64.2965 62.4549 69.0193 63.6284 73.6025C65.3352 80.2636 67.0997 87.1491 64.842 93.7607C63.9729 96.3067 62.9131 98.7856 61.8866 101.183C59.7758 106.113 57.7804 110.77 57.2505 116.083C56.8588 119.993 57.658 123.327 58.8699 126.564C63.429 127.621 70.5011 128.813 79.1542 128.813C97.8051 128.813 105.077 124.981 105.077 124.981V68.7861C104.321 67.839 103.543 67.3443 102.662 66.5192Z" fill="white"/>
<path d="M101.025 47.764C101.84 52.8331 103.434 56.699 106.044 59.9306C107.319 61.5101 109.632 63.512 112.08 65.634C114.366 67.6146 116.79 69.7137 118.757 71.7968L117.82 72.6078L125.31 66.134C125.31 66.134 116.314 42.3698 106.633 40.2619C104.534 39.8043 102.046 39.7778 99.365 39.4474L99.5399 39.4704C100.131 42.3804 100.603 45.1367 101.025 47.764Z" fill="white"/>
<path d="M104.94 60.8388C102.167 57.4022 100.477 53.3226 99.6169 47.9955C99.1762 45.2374 98.6778 42.3309 98.0412 39.2619L98.2301 39.2866C96.4691 39.011 94.6398 38.5569 92.7913 37.7424L93.0204 37.8519C92.9417 43.5607 93.2128 49.4797 95.3323 54.0435C95.9339 55.3297 96.6142 56.5877 97.3802 57.8192C97.9695 58.7733 98.6131 59.7098 99.3003 60.6303C100.145 61.754 101.054 62.853 102.039 63.9184C102.476 64.3919 103.034 64.9114 103.625 65.4626C104.183 65.9821 104.533 66.2065 105.077 66.7631V64.9344L114.796 75.2192L117.675 72.7315C115.73 70.689 113.319 68.5971 111.157 66.726C108.655 64.5598 106.296 62.5155 104.94 60.8388Z" fill="white"/>
<path d="M56.2659 63.9184C57.254 62.853 58.1616 61.754 59.0063 60.6303C59.6953 59.7098 60.3353 58.7733 60.9282 57.8192C61.6924 56.5877 62.3727 55.3297 62.9725 54.0435C65.0956 49.4797 65.3666 43.5607 65.2862 37.8519C63.5828 38.5746 61.8953 38.9933 60.2636 39.2619C59.6288 42.3309 59.1322 45.2374 58.688 47.9955C57.8311 53.3226 56.14 57.4022 53.3664 60.8388C52.0128 62.5155 49.6519 64.5598 47.1512 66.726C44.9879 68.5971 42.5746 70.689 40.6317 72.7315L43.5102 75.2192L52.9939 63.9767L53.0061 67.0776C53.55 66.521 54.1254 65.9821 54.6815 65.4626C55.2726 64.9114 55.8322 64.3919 56.2659 63.9184Z" fill="white"/>
</svg>
