<svg width="158" height="158" viewBox="0 0 158 158" fill="none" xmlns="http://www.w3.org/2000/svg">
<circle cx="79" cy="79" r="79" fill="#255585"/>
<path d="M79.7763 29.208L122.259 40.5894C122.696 40.7066 123 41.1027 123 41.5554V96.5252C123 98.5267 122.002 100.396 120.339 101.51L79.5565 128.825C79.2198 129.051 78.7802 129.051 78.4435 128.825L37.6611 101.51C35.9981 100.396 35 98.5267 35 96.5252V41.5554C35 41.1027 35.304 40.7066 35.7412 40.5894L78.2237 29.208C78.7323 29.0717 79.2678 29.0717 79.7763 29.208Z" stroke="white" stroke-width="8" stroke-linecap="round"/>
<path d="M63.7525 75.4271L75.616 87.2014C75.7135 87.2982 75.8707 87.2982 75.9682 87.2014L96.8614 66.4653" stroke="white" stroke-width="8" stroke-linecap="round"/>
</svg>
