<svg width="160" height="174" viewBox="0 0 160 174" fill="none" xmlns="http://www.w3.org/2000/svg">
<path d="M79.977 0C35.7838 0.000205002 0.00142866 35.9186 0 80.2801C0.0136063 95.638 4.38413 110.261 12.1447 122.723C25.3797 99.675 50.8163 84.1132 79.977 84.1132C109.141 84.1132 134.579 99.6776 147.813 122.729C155.573 110.266 159.945 95.6429 159.954 80.2834C159.954 35.9207 124.171 0.000205002 79.977 0ZM79.977 22.3711C95.6544 22.3709 108.413 35.1294 108.413 50.8218C108.413 66.5145 95.6544 79.272 79.977 79.272C64.2999 79.272 51.5397 66.5145 51.5397 50.8218C51.5397 35.1294 64.2999 22.3711 79.977 22.3711ZM79.977 26.4256C66.475 26.4256 55.5796 37.3286 55.5796 50.8218C55.5796 64.3152 66.475 75.2164 79.977 75.2164C93.4793 75.2164 104.375 64.3152 104.375 50.8218C104.375 37.3286 93.4793 26.4256 79.977 26.4256ZM79.977 88.167C51.5237 88.167 26.9233 103.76 14.7136 126.482C22.5936 137.691 33.1786 146.665 45.4648 152.578C44.3501 149.207 43.7128 145.619 43.633 141.894C43.6325 141.873 43.6317 141.853 43.6313 141.832C43.6266 141.588 43.6245 141.342 43.6245 141.097C43.6245 140.155 43.6653 139.216 43.7272 138.29C43.7476 137.982 43.768 137.675 43.8088 137.368C43.8496 137.061 43.87 136.755 43.9115 136.451C44.0959 134.93 44.3912 133.438 44.766 131.982C44.8483 131.689 44.9095 131.401 45.0014 131.113C45.1653 130.537 45.3415 129.965 45.532 129.399C45.6347 129.117 45.7164 128.835 45.8293 128.557C46.2368 127.439 46.6981 126.348 47.2104 125.285C47.7206 124.22 48.282 123.186 48.8906 122.183C49.0341 121.932 49.1981 121.683 49.3559 121.438C49.8294 120.697 50.3272 119.975 50.8517 119.272C51.0361 119.038 51.2041 118.807 51.3844 118.577C51.745 118.118 52.116 117.666 52.4971 117.224C52.6814 117.004 52.8801 116.786 53.0767 116.569C59.73 109.222 69.3235 104.604 79.9767 104.604C82.7966 104.604 85.5432 104.927 88.1797 105.54C88.4729 105.602 88.7634 105.684 89.0546 105.754C90.5054 106.129 91.9219 106.594 93.2972 107.137C93.4611 107.199 93.621 107.261 93.7829 107.343C94.7132 107.728 95.6271 108.148 96.5168 108.605C97.0393 108.874 97.5542 109.155 98.0624 109.449C98.3161 109.593 98.5665 109.746 98.8164 109.898C99.0661 110.042 99.3153 110.207 99.561 110.366C99.8066 110.53 100.051 110.686 100.293 110.85C100.375 110.891 100.436 110.953 100.514 110.994C100.678 111.118 100.848 111.223 101.012 111.34C101.249 111.505 101.485 111.684 101.719 111.859C101.952 112.044 102.184 112.213 102.411 112.392C102.87 112.754 103.319 113.125 103.759 113.507C103.978 113.693 104.196 113.892 104.411 114.09C104.626 114.295 104.838 114.485 105.049 114.687C111.997 121.336 116.332 130.714 116.332 141.094C116.332 145.117 115.678 148.989 114.477 152.611C117.144 151.333 119.732 149.912 122.228 148.354C123.964 147.271 125.657 146.12 127.303 144.908C127.385 144.846 127.467 144.784 127.542 144.723C127.782 144.537 128.022 144.364 128.26 144.181C128.383 144.078 128.505 143.996 128.628 143.901C128.841 143.736 129.053 143.572 129.264 143.407C129.407 143.283 129.553 143.179 129.697 143.063C129.881 142.919 130.084 142.755 130.276 142.598C130.44 142.474 130.6 142.335 130.762 142.203C130.946 142.059 131.112 141.913 131.286 141.766C131.471 141.622 131.645 141.464 131.823 141.311C131.987 141.167 132.139 141.041 132.295 140.906C132.479 140.741 132.665 140.583 132.848 140.42C132.991 140.276 133.151 140.152 133.301 140.019C133.506 139.834 133.706 139.651 133.907 139.466C134.03 139.362 134.153 139.241 134.274 139.13C134.583 138.842 134.891 138.554 135.194 138.262C135.207 138.248 135.214 138.241 135.234 138.221C135.9 137.58 136.556 136.93 137.199 136.269C137.24 136.228 137.261 136.208 137.302 136.166C137.583 135.878 137.861 135.586 138.136 135.294C138.197 135.232 138.259 135.17 138.321 135.088C138.569 134.822 138.814 134.555 139.06 134.287C139.121 134.226 139.183 134.143 139.265 134.071C139.509 133.801 139.749 133.532 139.988 133.258C140.05 133.197 140.111 133.114 140.173 133.049C140.416 132.768 140.658 132.489 140.898 132.205C140.939 132.143 141.001 132.081 141.042 132.019C141.295 131.719 141.548 131.417 141.796 131.112C141.836 131.071 141.877 131.03 141.898 130.968C142.161 130.646 142.421 130.321 142.677 129.996C142.697 129.976 142.718 129.935 142.738 129.914C143.613 128.803 144.457 127.669 145.272 126.514C133.076 103.753 108.455 88.1249 79.9706 88.1249L79.977 88.167ZM79.9779 108.663C79.1398 108.663 78.3099 108.704 77.4895 108.766C77.2147 108.786 76.9425 108.807 76.6699 108.848C76.127 108.909 75.5859 108.971 75.0511 109.053C74.5164 109.135 73.9856 109.239 73.459 109.338C73.1971 109.399 72.9345 109.441 72.6722 109.502C71.6293 109.743 70.6059 110.035 69.6045 110.375C69.4406 110.437 69.2807 110.478 69.1209 110.54C68.6841 110.704 68.25 110.861 67.8217 111.036C67.6782 111.097 67.5326 111.16 67.3897 111.221C67.2462 111.283 67.1189 111.345 66.9842 111.406C66.5209 111.612 66.0622 111.826 65.6093 112.051C65.4862 112.112 65.3719 112.174 65.2549 112.236C65.0236 112.359 64.7916 112.477 64.5622 112.603C64.333 112.727 64.1051 112.856 63.88 112.986C63.6548 113.109 63.4309 113.249 63.2098 113.383C62.9887 113.527 62.767 113.657 62.5479 113.796C62.3288 113.94 62.1132 114.079 61.8982 114.225C61.6832 114.369 61.4696 114.52 61.2587 114.67C61.0478 114.814 60.8389 114.975 60.6315 115.129C60.4246 115.294 60.2199 115.442 60.0164 115.603C59.8525 115.727 59.709 115.85 59.5572 115.973C59.5164 116.014 59.4545 116.055 59.4137 116.097C59.2089 116.262 59.0176 116.431 58.8203 116.599C58.6155 116.764 58.4312 116.941 58.2407 117.116C58.0563 117.281 57.8597 117.466 57.6733 117.645C57.4889 117.83 57.3025 118.005 57.1182 118.19C56.9338 118.375 56.7556 118.558 56.5773 118.746C56.393 118.931 56.2221 119.122 56.0479 119.314C55.884 119.499 55.7016 119.699 55.5336 119.894C55.4928 119.935 55.4724 119.976 55.452 119.998C55.3084 120.162 55.1771 120.319 55.0445 120.484C54.8805 120.689 54.7177 120.885 54.5578 121.089C54.3939 121.295 54.2401 121.499 54.0843 121.708C54.0231 121.79 53.9612 121.872 53.9204 121.942C53.8177 122.066 53.736 122.204 53.6332 122.337C53.4897 122.549 53.3352 122.764 53.1902 122.978C53.0467 123.194 52.9031 123.413 52.7616 123.631C52.6181 123.849 52.4847 124.07 52.35 124.294C52.2065 124.516 52.0813 124.742 51.9528 124.968C51.8296 125.194 51.697 125.423 51.5718 125.652C51.572 125.651 51.5716 125.652 51.5718 125.652C51.4486 125.882 51.3262 126.114 51.2071 126.347C51.084 126.579 50.9717 126.815 50.8588 127.051C50.7356 127.288 50.6348 127.526 50.526 127.766C50.4232 128.005 50.3131 128.247 50.2124 128.49C50.1715 128.593 50.1307 128.71 50.0688 128.821C50.0076 128.965 49.9661 129.089 49.9049 129.222C49.8022 129.467 49.7197 129.715 49.6251 129.964C49.5435 130.213 49.4408 130.463 49.3632 130.714C49.2809 130.965 49.1992 131.218 49.1196 131.471C49.038 131.725 48.9753 131.981 48.8936 132.238C48.8113 132.495 48.7493 132.753 48.686 133.013C48.5833 133.441 48.4771 133.873 48.3846 134.309C48.3642 134.391 48.3438 134.495 48.3234 134.583C48.303 134.687 48.2826 134.812 48.2622 134.925C48.2418 135.069 48.2009 135.228 48.1799 135.38C48.139 135.648 48.0982 135.915 48.0567 136.185C48.0159 136.453 47.9751 136.722 47.9336 136.994C47.8928 137.264 47.8723 137.536 47.8513 137.81C47.8515 137.809 47.8513 137.81 47.8513 137.81C47.8308 138.083 47.79 138.357 47.7696 138.632C47.7492 138.906 47.7288 139.183 47.7084 139.459C47.7086 139.458 47.7084 139.459 47.7084 139.459C47.6948 139.735 47.688 140.014 47.6676 140.292C47.6608 140.57 47.654 140.85 47.654 141.13C47.654 141.445 47.6589 141.761 47.6676 142.076C47.8111 146.787 48.9708 151.417 51.0774 155.638L51.655 156.794C57.1525 166.801 67.7588 173.568 79.9663 173.568C91.9262 173.568 102.35 167.073 107.938 157.4L108.796 155.7C108.857 155.576 108.919 155.435 108.981 155.301C109.062 155.136 109.124 154.99 109.208 154.833C109.207 154.835 109.208 154.833 109.208 154.833C109.475 154.263 109.726 153.682 109.959 153.097C110.083 152.805 110.187 152.512 110.294 152.217C110.294 152.219 110.295 152.216 110.294 152.217C110.397 151.927 110.505 151.632 110.601 151.337C110.642 151.193 110.684 151.065 110.724 150.93C110.968 150.166 111.186 149.397 111.372 148.618C111.372 148.615 111.373 148.612 111.374 148.611C111.455 148.309 111.517 148.004 111.578 147.699C111.579 147.696 111.579 147.695 111.58 147.693C111.641 147.388 111.703 147.081 111.764 146.775C111.765 146.771 111.765 146.77 111.766 146.768C111.827 146.461 111.869 146.152 111.909 145.844C111.909 145.846 111.91 145.842 111.909 145.844C111.95 145.535 111.992 145.218 112.033 144.907C112.033 144.909 112.034 144.906 112.033 144.907C112.074 144.596 112.095 144.279 112.137 143.968C112.157 143.655 112.199 143.339 112.199 143.026C112.213 142.784 112.219 142.538 112.24 142.296C112.253 141.909 112.26 141.522 112.26 141.133C112.26 140.853 112.255 140.574 112.247 140.296C112.24 140.018 112.233 139.741 112.206 139.466C112.206 139.466 112.206 139.466 112.206 139.466C112.192 139.189 112.165 138.912 112.144 138.639C112.104 138.167 112.063 137.698 112.001 137.231C111.994 137.149 111.987 137.066 111.981 136.998C111.94 136.729 111.919 136.459 111.878 136.192C111.878 136.192 111.878 136.191 111.878 136.192C111.837 135.924 111.796 135.655 111.755 135.389C111.755 135.39 111.754 135.389 111.755 135.389C111.714 135.124 111.651 134.857 111.61 134.591C111.57 134.406 111.529 134.225 111.487 134.044C111.467 133.962 111.446 133.879 111.426 133.803C111.344 133.406 111.242 133.013 111.129 132.62C111.088 132.496 111.067 132.373 111.026 132.25C110.882 131.737 110.722 131.227 110.554 130.724C110.473 130.474 110.391 130.223 110.293 129.974C110.21 129.726 110.108 129.48 110.012 129.233C109.755 128.578 109.474 127.934 109.177 127.3C109.136 127.218 109.095 127.135 109.074 127.064C108.951 126.827 108.847 126.594 108.728 126.362C108.728 126.362 108.728 126.361 108.728 126.362C108.605 126.129 108.488 125.897 108.362 125.666C108.239 125.436 108.113 125.207 107.981 124.981C107.858 124.755 107.719 124.53 107.586 124.308C107.587 124.308 107.586 124.308 107.586 124.308C107.443 124.086 107.312 123.864 107.174 123.646C107.174 123.646 107.173 123.645 107.174 123.646C106.655 122.835 106.1 122.047 105.514 121.287C105.473 121.225 105.411 121.163 105.37 121.102C104.866 120.459 104.34 119.836 103.791 119.235C103.647 119.07 103.493 118.91 103.342 118.751C103.157 118.566 102.983 118.379 102.801 118.193C102.463 117.854 102.116 117.522 101.763 117.198C101.743 117.178 101.702 117.137 101.681 117.116C101.497 116.952 101.298 116.771 101.102 116.6C100.634 116.195 100.154 115.803 99.6646 115.424C99.5415 115.321 99.4149 115.239 99.2877 115.133C99.0809 114.969 98.872 114.825 98.6605 114.674C98.4496 114.53 98.2351 114.375 98.0222 114.228C97.8072 114.084 97.5887 113.94 97.3717 113.801C97.1526 113.656 96.9329 113.522 96.7118 113.387C96.058 112.988 95.3871 112.612 94.7027 112.26C94.6891 112.254 94.6823 112.247 94.6619 112.24C94.6633 112.241 94.6603 112.24 94.6619 112.24C94.2149 112.01 93.7556 111.789 93.2967 111.582C93.2831 111.575 93.2558 111.568 93.2558 111.561C93.0184 111.458 92.7782 111.347 92.5366 111.246C92.2951 111.143 92.0509 111.04 91.8072 110.948C91.5636 110.844 91.3174 110.762 91.0695 110.665C90.8219 110.583 90.5728 110.48 90.3229 110.402C90.0725 110.32 89.82 110.237 89.568 110.157C89.3135 110.075 89.061 109.992 88.8048 109.931C88.5484 109.849 88.2918 109.787 88.0336 109.721C87.5172 109.597 86.9948 109.467 86.4681 109.359C86.2062 109.297 85.9416 109.256 85.6751 109.215C84.8781 109.07 84.0728 108.959 83.2564 108.877C82.1684 108.774 81.0652 108.712 79.9483 108.712L79.9779 108.663ZM68.3773 122.518H79.977H91.5753C91.8595 122.517 92.1406 122.577 92.4001 122.694C92.6597 122.81 92.8918 122.98 93.0814 123.193L104.495 136.006C104.714 136.19 104.892 136.419 105.016 136.677C105.14 136.936 105.209 137.218 105.216 137.505C105.224 137.791 105.171 138.077 105.061 138.342C104.95 138.606 104.785 138.845 104.576 139.041L81.5219 166.569C81.4955 166.597 81.4682 166.625 81.4403 166.651C81.4203 166.672 81.3998 166.693 81.379 166.713C81.3524 166.741 81.3249 166.768 81.2967 166.795C81.2767 166.816 81.2563 166.836 81.2355 166.856C81.2019 166.878 81.1676 166.898 81.1328 166.918C81.1126 166.932 81.0922 166.945 81.0715 166.959C81.0379 166.98 81.0036 167.001 80.9688 167.02C80.9486 167.034 80.9282 167.048 80.9076 167.061C80.8672 167.083 80.8262 167.104 80.7844 167.123C80.7574 167.13 80.7302 167.137 80.7028 167.143C80.6622 167.158 80.6211 167.172 80.5796 167.184C80.5526 167.192 80.5254 167.198 80.498 167.205C80.464 167.212 80.4297 167.219 80.3953 167.225C80.3682 167.23 80.341 167.235 80.3137 167.239C80.2796 167.244 80.2453 167.249 80.2109 167.252C80.1767 167.256 80.1425 167.258 80.1082 167.259C80.074 167.262 80.0397 167.263 80.0055 167.264C79.9712 167.264 79.937 167.264 79.9028 167.262C79.8685 167.262 79.8342 167.26 79.8 167.258C79.7657 167.254 79.7314 167.249 79.6973 167.244C79.6629 167.24 79.6287 167.236 79.5945 167.23C79.5601 167.224 79.5259 167.218 79.4918 167.21C79.4574 167.204 79.4232 167.197 79.3891 167.189C79.3545 167.177 79.3203 167.163 79.2864 167.148C79.2518 167.136 79.2175 167.122 79.1836 167.107C79.149 167.095 79.1148 167.081 79.0809 167.066C79.0534 167.053 79.0262 167.04 78.9993 167.025C78.9644 167.006 78.9302 166.985 78.8965 166.964C78.8759 166.951 78.8555 166.937 78.8353 166.923C78.8005 166.903 78.7662 166.883 78.7326 166.861C78.7117 166.841 78.6914 166.821 78.6714 166.8C78.6434 166.773 78.6162 166.746 78.5897 166.718C78.5689 166.698 78.5485 166.677 78.5285 166.656C78.5005 166.63 78.4733 166.602 78.4468 166.574C78.433 166.561 78.4195 166.547 78.4061 166.533L55.3408 138.993C55.1344 138.797 54.9715 138.56 54.8627 138.297C54.7539 138.033 54.7016 137.75 54.7093 137.465C54.717 137.18 54.7846 136.9 54.9074 136.643C55.0303 136.386 55.2058 136.157 55.4225 135.973L66.8384 123.158C67.0277 122.945 67.2595 122.776 67.5187 122.659C67.7778 122.543 68.0585 122.483 68.3423 122.483L68.3773 122.518ZM69.279 126.571L60.7002 136.201L69.1716 137.703L76.2826 126.571L69.279 126.571ZM83.6692 126.571L90.7803 137.704L99.2509 136.202L90.6711 126.572L83.6692 126.571ZM79.9746 128.3L73.8399 137.908H86.1117L79.9746 128.3ZM61.9022 140.53L73.6569 154.567L68.6767 141.733L61.9022 140.53ZM98.0505 140.53L91.275 141.732L86.2923 154.57L98.0505 140.53ZM73.1008 141.963L79.9746 159.679L86.851 141.963H73.1008Z" fill="#255585"/>
</svg>
